<?xml version="1.0" encoding="iso-8859-1"?>
<!-- Generator: Adobe Illustrator 19.0.0, SVG Export Plug-In . SVG Version: 6.00 Build 0)  -->
<svg version="1.1" id="Capa_1" xmlns="http://www.w3.org/2000/svg" xmlns:xlink="http://www.w3.org/1999/xlink" x="0px" y="0px"
	 viewBox="0 0 512 512" style="enable-background:new 0 0 512 512;" xml:space="preserve">
<g>
	<path style="fill:#59474E;" d="M467.844,123.576c0,0-8.827,52.961-44.134,61.788l-1.059,0.441h-0.088
		c-2.101-3.442-4.687-6.567-7.679-9.268l-35.307-61.788c0,0,3.91-13.073,2.648-15.182
		C392.286,108.57,430.065,138.669,467.844,123.576z"/>
	<path style="fill:#59474E;" d="M128.276,100.891c-2.118,4.413-3.69,9.065-4.678,13.858c0,0-11.793,21.838-17.654,35.307
		c-4.475,10.266-8.827,26.48-17.151,35.307c-0.044,0.044-0.044,0.115-0.062,0.177l-0.441-0.177
		c-35.307-8.827-44.134-61.788-44.134-61.788C80.258,138.052,116.36,111.13,128.276,100.891z"/>
</g>
<path style="fill:#F0C419;" d="M146.636,72.91c-3.442,4.766-6.885,9.71-10.151,14.829c-2.736,4.237-5.473,8.562-8.121,13.064
	l-0.088,0.088c-10.133,17.186-19.181,34.998-27.098,53.314c-4.502,10.327-8.65,20.831-12.446,31.335
	c-1.412,3.619-2.648,7.326-3.884,10.945c-13.999,38.979-21.891,79.892-23.391,121.281C61.439,425.012,148.357,511.974,255.612,512
	c107.246,0.026,194.208-86.9,194.234-194.146c0-0.026,0-0.053,0-0.079c-1.501-41.389-9.392-82.301-23.391-121.281
	c-1.236-3.531-2.471-7.15-3.796-10.68h-0.088c-10.636-29.976-24.141-58.857-40.339-86.238c-5.111-8.518-10.477-16.771-16.082-24.636
	c-0.132-0.274-0.282-0.627-0.406-0.874c0-0.088,0-0.088-0.088-0.177C334.312,30.364,296.533,0,255.841,0
	c-26.242,1.174-51.187,11.766-70.262,29.835c-14.591,12.764-27.602,27.222-38.75,43.075"/>
<path style="fill:#59474E;" d="M342.167,165.062c4.299-29.155-1.068-58.919-15.27-84.738c0.53,8.121,1.854,68.143-68.32,87.032
	c11.36-16.762,19.393-35.554,23.656-55.344c2.71-14.335-6.708-28.158-21.052-30.876c-1.642-0.309-3.319-0.468-4.987-0.459h-0.353
	c-14.564-0.071-26.436,11.678-26.507,26.242c-0.009,1.704,0.15,3.416,0.468,5.093c4.21,19.799,12.216,38.591,23.568,55.344
	c-70.085-18.889-68.761-78.912-68.231-87.032c-14.202,25.818-19.569,55.583-15.27,84.738
	c-50.843-29.658-28.775-80.854-23.038-92.152c11.148-15.853,24.159-30.311,38.75-43.075C204.654,11.766,229.599,1.174,255.841,0
	c40.692,0,78.47,30.364,109.806,73.881c0.088,0.088,0.088,0.088,0.088,0.177C372.179,87.386,391.421,136.286,342.167,165.062z"/>
<g>
	<path style="fill:#2C2F38;" d="M396.823,335.419c0,78.003-63.227,141.229-141.229,141.229s-141.229-63.227-141.229-141.229
		c0.079-10.76,0.962-21.502,2.648-32.13c0.441-3.354,1.059-6.797,1.677-10.239c44.823,10.839,90.793,16.18,136.904,15.888
		c46.111,0.291,92.081-5.049,136.904-15.888c0.618,3.442,1.236,6.885,1.677,10.239C395.861,313.917,396.744,324.659,396.823,335.419
		z"/>
	<path style="fill:#2C2F38;" d="M144.861,235.429c-4.872,0-8.827-3.954-8.827-8.827c0-1.289,0.282-2.569,0.83-3.734
		c0.75-1.606,19.075-39.244,71.665-37.443c4.872,0.159,8.694,4.237,8.536,9.109s-4.237,8.694-9.109,8.536
		c-41.318-1.262-54.973,26.992-55.097,27.275C151.411,233.443,148.295,235.429,144.861,235.429z"/>
	<path style="fill:#2C2F38;" d="M367.139,235.429c-3.407,0-6.514-1.96-7.971-5.031c-0.609-1.245-14.264-28.519-55.124-27.328
		c-4.872,0.159-8.95-3.663-9.109-8.536s3.663-8.95,8.536-9.109c52.67-1.721,70.915,35.846,71.665,37.443
		c2.065,4.413,0.159,9.665-4.255,11.74C369.707,235.147,368.427,235.429,367.139,235.429L367.139,235.429z"/>
	<path style="fill:#2C2F38;" d="M220.693,273.632c-2.339,0-4.59-0.927-6.241-2.586c-4.422-5.543-11.042-8.88-18.121-9.136
		c-5.022,0.9-9.489,3.707-12.472,7.847c-2.763,4.016-8.253,5.04-12.269,2.277c-3.963-2.719-5.014-8.112-2.374-12.128
		c5.861-8.5,15.032-14.141,25.262-15.553c12.428-0.512,24.397,4.722,32.456,14.202c3.442,3.451,3.442,9.039,0,12.481
		C225.283,272.705,223.032,273.632,220.693,273.632z"/>
	<path style="fill:#2C2F38;" d="M335.45,273.632c-2.931,0.009-5.676-1.448-7.317-3.875c-2.975-4.14-7.45-6.947-12.463-7.847
		c-7.088,0.247-13.708,3.584-18.121,9.136c-3.478,3.416-9.065,3.363-12.481-0.115c-3.372-3.434-3.372-8.933,0-12.366
		c8.05-9.489,20.028-14.723,32.456-14.202c10.23,1.403,19.401,7.053,25.262,15.553c2.701,4.06,1.606,9.533-2.445,12.243
		C338.893,273.111,337.189,273.632,335.45,273.632z"/>
</g>
<path style="fill:#D1D4D1;" d="M353.095,301.083v27.293c0.044,8.739-6.346,16.18-14.988,17.459
	c-27.213,3.69-54.647,5.526-82.107,5.481c-27.46,0.044-54.894-1.783-82.107-5.481c-8.65-1.271-15.041-8.712-14.988-17.459V301.26
	c31.953,5.181,64.277,7.75,96.654,7.679C288.236,309.036,320.859,306.414,353.095,301.083z"/>
<path style="fill:#FF5364;" d="M344.357,445.048c-51.469,41.901-125.217,42.157-176.978,0.618
	c22.049-48.945,79.6-70.756,128.545-48.715C317.355,406.608,334.559,423.688,344.357,445.048z"/>
<g>
</g>
<g>
</g>
<g>
</g>
<g>
</g>
<g>
</g>
<g>
</g>
<g>
</g>
<g>
</g>
<g>
</g>
<g>
</g>
<g>
</g>
<g>
</g>
<g>
</g>
<g>
</g>
<g>
</g>
</svg>
